<svg xmlns="http://www.w3.org/2000/svg" viewBox="0 0 296.999 296.999"><path d="M296.617 267.291L265.83 159.396a9.966 9.966 0 00-9.583-7.232h-70.799c14.204-19.17 28.03-44.434 28.03-70.154 0-35.842-29.148-65.002-64.977-65.002-35.83 0-64.979 29.16-64.979 65.002 0 25.721 13.826 50.984 28.031 70.154h-70.8a9.966 9.966 0 00-9.583 7.232L.383 267.291a9.968 9.968 0 009.583 12.701h277.068a9.964 9.964 0 009.583-12.701zM148.501 36.939c24.838 0 45.046 20.219 45.046 45.07 0 33.348-31.124 68.463-45.046 82.502-13.923-14.039-45.048-49.154-45.048-82.502 0-24.851 20.209-45.07 45.048-45.07zm-20.384 135.158c7.473 8.078 13.078 13.07 13.797 13.705a9.952 9.952 0 006.587 2.486 9.95 9.95 0 006.587-2.486c.719-.635 6.324-5.627 13.796-13.705h79.843l2.77 9.707-38.549 32.125-167.9-30.527 3.227-11.305h79.842zm-51.87 87.963v-50.727l116.744 21.227-35.401 29.5H76.247zm-36.695-57.398l16.763 3.047v54.352H23.174l16.378-57.399zm149.172 57.398l68.753-57.295 16.349 57.295h-85.102z"/><path d="M175.311 82.01c0-14.861-12.027-26.951-26.811-26.951s-26.813 12.09-26.813 26.951c0 14.859 12.028 26.951 26.813 26.951 14.784 0 26.811-12.092 26.811-26.951zm-33.691 0c0-3.871 3.087-7.02 6.881-7.02 3.793 0 6.879 3.148 6.879 7.02s-3.086 7.02-6.879 7.02c-3.794-.001-6.881-3.149-6.881-7.02z"/></svg>