<svg class="icon" style="width:1em;height:1em;vertical-align:middle" viewBox="0 0 1024 1024" xmlns="http://www.w3.org/2000/svg" fill="currentColor" overflow="hidden"><path d="M998.733 930.989L587.952 520.206l410.77-410.771c.005-.005.01-.007.016-.014 21.271-21.272 21.271-55.755.001-77.022-21.269-21.269-55.753-21.269-77.022.002a.086.086 0 00-.015.017l-.002-.003-410.769 410.77L100.16 32.418c-.005-.006-.01-.013-.015-.017-21.27-21.271-55.755-21.271-77.024-.002-21.267 21.267-21.27 55.75.001 77.022l.016.014v.003l410.769 410.768L23.126 930.989l-.002.003c-21.27 21.269-21.27 55.752 0 77.022 21.266 21.265 55.752 21.265 77.02 0l.002-.002L510.929 597.23l410.782 410.782s.002 0 .003.002c21.268 21.265 55.753 21.265 77.02 0 21.272-21.27 21.272-55.753 0-77.022l-.002-.003z"/></svg>