<svg xmlns="http://www.w3.org/2000/svg" viewBox="0 0 512 512"><path d="M182 106v60c0 8.401 6.599 15 15 15h90c8.401 0 15-6.599 15-15v-60H182z" fill="#a8aff1"/><path d="M302 106v60c0 8.401-6.599 15-15 15h-45v-75h60z" fill="#97a1ed"/><path d="M92 271c0 8.401-8.599 15-17 15H15v-30h60c8.401 0 17 6.599 17 15z" fill="#003a92"/><path d="M15 361c-8.291 0-15-6.709-15-15V196c0-8.291 6.709-15 15-15s15 6.709 15 15v150c0 8.291-6.709 15-15 15zm122 0H75c-8.291 0-15-6.709-15-15V196c0-8.291 6.709-15 15-15h62c8.291 0 15 6.709 15 15v150c0 8.291-6.709 15-15 15z" fill="#0050b2"/><path d="M437 361h-60c-8.291 0-15-6.709-15-15V226c0-8.291 6.709-15 15-15h60c8.291 0 15 6.709 15 15v120c0 8.291-6.709 15-15 15z" fill="#97a1ed"/><path d="M377 181h-23.699L327.5 155.501C324.8 152.5 320.9 151 317 151H167c-3.9 0-7.8 1.5-10.499 4.501L131.3 180.7v180.6l55.201 55.199C189.2 419.5 193.1 421 197 421h150c5.7 0 10.8-3.3 13.5-8.401l30-60c.899-2.098 1.5-4.199 1.5-6.599V196c0-8.401-6.599-15-15-15z" fill="#e1e4fb"/><path d="M437 391c-8.291 0-15-6.709-15-15V196c0-8.291 6.709-15 15-15 41.367 0 75 33.647 75 75v60c0 41.353-33.633 75-75 75zm-45-195v150c0 2.401-.601 4.501-1.5 6.599l-30 60C357.8 417.7 352.7 421 347 421H242V151h75c3.9 0 7.8 1.5 10.499 4.501L353.301 181H377c8.401 0 15 6.599 15 15z" fill="#c5c9f7"/><path d="M300.5 292.599l-30 60c-3.9 7.5-12.599 10.501-20.099 6.901A15.135 15.135 0 01242 346c0-2.401.601-4.501 1.5-6.599L262.7 301H227c-11.1 0-18.3-11.7-13.5-21.599l30-60c3.9-7.5 12.9-10.501 20.099-6.901 7.5 3.9 10.501 12.9 6.901 20.099L251.3 271H287c11.1 0 18.3 11.7 13.5 21.599z" fill="#fea832"/><path d="M300.5 292.599l-30 60c-3.9 7.5-12.599 10.501-20.099 6.901A15.135 15.135 0 01242 346c0-2.401.601-4.501 1.5-6.599L262.7 301H242v-78.6l1.5-2.999c3.9-7.5 12.9-10.501 20.099-6.901 7.5 3.9 10.501 12.9 6.901 20.099L251.3 271H287c11.1 0 18.3 11.7 13.5 21.599z" fill="#fe9923"/><path d="M332 106c0 8.401-6.599 15-15 15H167c-8.401 0-15-6.599-15-15s6.599-15 15-15h150c8.401 0 15 6.599 15 15z" fill="#e1e4fb"/><path d="M317 121h-75V91h75c8.401 0 15 6.599 15 15s-6.599 15-15 15z" fill="#c5c9f7"/></svg>