<svg xmlns="http://www.w3.org/2000/svg" width="100" height="100"><path d="M69.575 16h-39c-7.168 0-13 5.832-13 13v39c0 7.168 5.832 13 13 13h39c7.168 0 13-5.832 13-13V29c0-7.168-5.832-13-13-13zm11 52c0 6.065-4.935 11-11 11h-39c-6.065 0-11-4.935-11-11V29c0-6.065 4.935-11 11-11h39c6.065 0 11 4.935 11 11v39z"/><path d="M77.075 46a.5.5 0 00-.5.5v18.663c0 5.424-4.413 9.837-9.837 9.837H33.412c-5.424 0-9.837-4.413-9.837-9.837V31.837c0-5.424 4.413-9.837 9.837-9.837h33.663a.5.5 0 000-1H33.412c-5.976 0-10.837 4.861-10.837 10.837v33.326C22.575 71.139 27.436 76 33.412 76h33.326c5.976 0 10.837-4.861 10.837-10.837V46.5a.5.5 0 00-.5-.5z"/><path d="M77.075 40a.5.5 0 00-.5.5v4a.5.5 0 001 0v-4a.5.5 0 00-.5-.5zm-.5-3.5v2a.5.5 0 001 0v-2a.5.5 0 00-1 0zM52.517 39h4.558a.5.5 0 00.5-.5v-6a.5.5 0 00-.5-.5h-5.036c-2.443.002-4.335.66-5.621 1.952-1.23 1.236-1.851 2.961-1.843 5.128l.5.057h-.5V43h-2.5a.5.5 0 00-.5.5v5a.5.5 0 00.5.5h2.5v15.5a.5.5 0 00.5.5h7a.5.5 0 00.5-.5V49h3.612a.5.5 0 00.493-.42c.004-.024.392-2.439.577-5.044a.5.5 0 00-.499-.536h-5.184v-3.2c.001-.251.473-.8.943-.8zm-1.442 5h5.144a64.949 64.949 0 01-.461 4h-3.683a.5.5 0 00-.5.5V64h-6V48.5a.5.5 0 00-.5-.5h-2.5v-4h2.5a.5.5 0 00.5-.5v-4.423c-.007-1.892.515-3.378 1.551-4.419 1.093-1.098 2.746-1.655 4.914-1.658h4.535v5h-4.058c-.944 0-1.942.925-1.942 1.8v3.7a.5.5 0 00.5.5z"/></svg>