<svg xmlns="http://www.w3.org/2000/svg" viewBox="0 0 64 64"><path d="M47.404 26.263a1.017 1.017 0 00-1.076.918 1 1 0 00.918 1.076c2.662.212 4.022 1.586 4.406 4.454a1 1 0 101.983-.265c-.512-3.815-2.609-5.895-6.23-6.183zm-30.752 0a1 1 0 10-.158 1.994c2.663.212 4.022 1.585 4.405 4.454a1 1 0 001.983-.265c-.51-3.814-2.606-5.894-6.23-6.183z"/><path d="M63 28.92h-4.96c-1.341-4.657-5.632-8.077-10.715-8.077-4.342 0-8.103 2.5-9.946 6.13-.886-1.806-2.568-3.578-5.43-3.578-2.862 0-4.543 1.772-5.43 3.577-1.842-3.63-5.604-6.129-9.946-6.129-5.082 0-9.373 3.42-10.714 8.077H1a1 1 0 100 2h4.472c-.035.356-.055.715-.055 1.08 0 6.152 5.005 11.157 11.156 11.157 6.152 0 11.156-5.005 11.156-11.157 0-.63-.065-1.244-.165-1.846a.997.997 0 00.157-.408c.024-.178.63-4.351 4.227-4.351 3.6 0 4.205 4.173 4.229 4.348.02.152.08.285.159.406a11.133 11.133 0 00-.167 1.85c0 6.153 5.005 11.158 11.156 11.158S58.481 38.152 58.481 32c0-.365-.02-.724-.054-1.08H63a1 1 0 100-2zM16.573 41.157c-5.049 0-9.156-4.109-9.156-9.157s4.107-9.157 9.156-9.157c5.05 0 9.156 4.108 9.156 9.157s-4.107 9.157-9.156 9.157zm30.752 0c-5.049 0-9.156-4.109-9.156-9.157s4.107-9.157 9.156-9.157 9.156 4.108 9.156 9.157-4.107 9.157-9.156 9.157z"/></svg>