<svg xmlns="http://www.w3.org/2000/svg" viewBox="0 0 1000 1000"><path d="M500 9.9c270.1 0 490.5 220.6 490 490.3-.5 270.7-220.6 490.6-490.3 489.9-270.5-.7-489.3-219.6-489.7-490C9.6 230.3 229.9 9.9 500 9.9zm443.7 490c0-244.4-198-443-443.5-443.5-244.7-.5-443.6 198.1-443.9 443.5-.3 244.4 198.3 442.9 443.4 443.6 244.1.7 444.1-199 444-443.6z"/><path d="M527.3 658.3h-62.2c0-12.4-.7-24.6.1-36.7 1.6-24.4 7.3-47.9 20-69.2 9.9-16.6 22.6-30.9 36.7-44 17.5-16.3 35.1-32.4 52.3-49.1 10.1-9.8 19-20.8 23.7-34.4 11.2-32.7 4-61.8-17.7-87.8-36.1-43.1-96.4-44.6-133.4-23-23.3 13.6-37.3 34.4-45.4 59.5-3.7 11.2-6.2 22.8-9.5 35.1-21.5-2.5-43.5-5.2-66.3-7.9.9-5.7 1.5-11 2.5-16.3 5.7-29.6 15.9-57.2 35.3-80.8 23.5-28.8 54.2-45.6 90.3-52.5 37.7-7.2 75.3-6.5 112 5.5 46.9 15.2 81.6 45 97.4 92.4 15.1 45.5 7.7 88.5-22.1 127-18.9 24.4-42.4 44.2-64.5 65.4-9.7 9.3-19.6 18.7-28 29.2-12.5 15.5-17.3 34.3-18.8 53.9-1.1 10.9-1.6 22-2.4 33.7zM461 790v-73.7h73.7V790H461z"/></svg>